<!-- Generated by scripts/gen-arc-svgs.mjs — light theme, English -->
<svg xmlns="http://www.w3.org/2000/svg" width="980" height="1714" viewBox="0 0 980 1714" role="img" aria-label="OnWorking — Agent Workflow">
<style>svg{font-family:'Segoe UI', 'Inter', -apple-system, 'Helvetica Neue', Arial, sans-serif;}</style>
<defs><marker id="arr" markerWidth="9" markerHeight="9" refX="8" refY="4.5" orient="auto" markerUnits="userSpaceOnUse"><path d="M0,0 L9,4.5 L0,9 z" fill="#94A3B8"/></marker><filter id="sh" x="-10%" y="-10%" width="120%" height="130%"><feDropShadow dx="0" dy="1.5" stdDeviation="2.5" flood-color="#0F172A" flood-opacity="0.07"/></filter></defs>
<text x="48" y="28" font-size="20" font-weight="700" fill="#0F172A" text-anchor="start">OnWorking — Agent Workflow</text>
<g><rect x="30" y="44" width="330" height="34" rx="8" fill="#EEF2FF" stroke="#4F46E5" stroke-width="1.2"/><text x="195" y="66" font-size="12" font-weight="700" fill="#3730A3" text-anchor="middle" letter-spacing="2">AGENT APP</text><line x1="30" y1="94" x2="360" y2="94" stroke="#E2E8F0" stroke-width="1.2"/><line x1="30" y1="78" x2="30" y2="1714" stroke="#E2E8F0" stroke-width="1.2"/><line x1="360" y1="78" x2="360" y2="1714" stroke="#E2E8F0" stroke-width="1.2"/></g>
<g><rect x="380" y="44" width="280" height="34" rx="8" fill="#FFFBEB" stroke="#FDE68A" stroke-width="1.2"/><text x="520" y="66" font-size="12" font-weight="700" fill="#3730A3" text-anchor="middle" letter-spacing="2">AUDITOR</text><line x1="380" y1="94" x2="660" y2="94" stroke="#E2E8F0" stroke-width="1.2"/><line x1="380" y1="78" x2="380" y2="1714" stroke="#E2E8F0" stroke-width="1.2"/><line x1="660" y1="78" x2="660" y2="1714" stroke="#E2E8F0" stroke-width="1.2"/></g>
<g><rect x="680" y="44" width="270" height="34" rx="8" fill="#F5F3FF" stroke="#DDD6FE" stroke-width="1.2"/><text x="815" y="66" font-size="12" font-weight="700" fill="#3730A3" text-anchor="middle" letter-spacing="2">ONWORKING</text><line x1="680" y1="94" x2="950" y2="94" stroke="#E2E8F0" stroke-width="1.2"/><line x1="680" y1="78" x2="680" y2="1714" stroke="#E2E8F0" stroke-width="1.2"/><line x1="950" y1="78" x2="950" y2="1714" stroke="#E2E8F0" stroke-width="1.2"/></g>
<rect x="30" y="110" width="4" height="20" rx="2" fill="#4F46E5"/>
<text x="44" y="124" font-size="13" font-weight="700" fill="#3730A3" text-anchor="start" letter-spacing="1.5">PHASE 1 · IMPORT &amp; MAPPING</text>
<line x1="30" y1="136" x2="950" y2="136" stroke="#E2E8F0" stroke-width="1.5" stroke-dasharray="6 5"/>
<g filter="url(#sh)"><rect x="40" y="167" width="290" height="50" rx="25" fill="#4F46E5" stroke="none"/><text x="185" y="188.25" font-size="12.5" font-weight="600" fill="#FFFFFF" text-anchor="middle">Start · plan from PBC /</text>
<text x="185" y="204.75" font-size="12.5" font-weight="600" fill="#FFFFFF" text-anchor="middle">customer files</text></g>
<g filter="url(#sh)"><rect x="40" y="238" width="290" height="44" rx="10" fill="#FFFFFF" stroke="#CBD5E1" stroke-width="1.5"/><text x="185" y="256.25" font-size="12.5" font-weight="600" fill="#0F172A" text-anchor="middle">Read manual · connect MCP ·</text>
<text x="185" y="272.75" font-size="12.5" font-weight="600" fill="#0F172A" text-anchor="middle">prepare app state</text></g>
<g filter="url(#sh)"><rect x="395" y="238" width="250" height="44" rx="10" fill="#FFFBEB" stroke="#FDE68A" stroke-width="1.4" stroke-dasharray="5 4"/><text x="520" y="256.32" font-size="12" font-weight="500" fill="#64748B" text-anchor="middle">Excel / CSV files</text>
<text x="520" y="272.32" font-size="12" font-weight="500" fill="#64748B" text-anchor="middle">in folders</text></g>
<g filter="url(#sh)"><rect x="40" y="306" width="290" height="44" rx="10" fill="#FFFFFF" stroke="#CBD5E1" stroke-width="1.5"/><text x="185" y="332.5" font-size="12.5" font-weight="600" fill="#0F172A" text-anchor="middle">Call tool: open workspace</text></g>
<g filter="url(#sh)"><rect x="695" y="306" width="250" height="44" rx="10" fill="#F5F3FF" stroke="#DDD6FE" stroke-width="1.5"/><text x="820" y="324.32" font-size="12" font-weight="600" fill="#0F172A" text-anchor="middle">Interface: switch active</text>
<text x="820" y="340.32" font-size="12" font-weight="600" fill="#0F172A" text-anchor="middle">workspace · state machine</text></g>
<g filter="url(#sh)"><rect x="40" y="374" width="290" height="44" rx="10" fill="#FFFFFF" stroke="#CBD5E1" stroke-width="1.5"/><text x="185" y="400.5" font-size="12.5" font-weight="600" fill="#0F172A" text-anchor="middle">Call tool: create BigTable</text></g>
<g filter="url(#sh)"><rect x="695" y="374" width="250" height="44" rx="10" fill="#F5F3FF" stroke="#DDD6FE" stroke-width="1.5"/><text x="820" y="392.32" font-size="12" font-weight="600" fill="#0F172A" text-anchor="middle">Interface: create</text>
<text x="820" y="408.32" font-size="12" font-weight="600" fill="#0F172A" text-anchor="middle">BigTable · state machine</text></g>
<g filter="url(#sh)"><rect x="40" y="442" width="290" height="44" rx="10" fill="#FFFFFF" stroke="#CBD5E1" stroke-width="1.5"/><text x="185" y="468.5" font-size="12.5" font-weight="600" fill="#0F172A" text-anchor="middle">Call tool: import files</text></g>
<g filter="url(#sh)"><rect x="695" y="442" width="250" height="44" rx="10" fill="#F5F3FF" stroke="#DDD6FE" stroke-width="1.5"/><text x="820" y="460.32" font-size="12" font-weight="600" fill="#0F172A" text-anchor="middle">Interface: import</text>
<text x="820" y="476.32" font-size="12" font-weight="600" fill="#0F172A" text-anchor="middle">source files</text></g>
<g filter="url(#sh)"><polygon points="185,501 285,532 185,563 85,532" fill="#EEF2FF" stroke="#4F46E5" stroke-width="1.5"/><text x="185" y="528.32" font-size="12" font-weight="600" fill="#3730A3" text-anchor="middle">All files</text>
<text x="185" y="544.32" font-size="12" font-weight="600" fill="#3730A3" text-anchor="middle">imported?</text></g>
<g filter="url(#sh)"><rect x="40" y="578" width="290" height="44" rx="10" fill="#FFFFFF" stroke="#CBD5E1" stroke-width="1.5"/><text x="185" y="596.25" font-size="12.5" font-weight="600" fill="#0F172A" text-anchor="middle">Call tool: get headers ·</text>
<text x="185" y="612.75" font-size="12.5" font-weight="600" fill="#0F172A" text-anchor="middle">inspect sheet</text></g>
<g filter="url(#sh)"><rect x="695" y="578" width="250" height="44" rx="10" fill="#F5F3FF" stroke="#DDD6FE" stroke-width="1.5"/><text x="820" y="596.32" font-size="12" font-weight="600" fill="#0F172A" text-anchor="middle">Interface: detect</text>
<text x="820" y="612.32" font-size="12" font-weight="600" fill="#0F172A" text-anchor="middle">header row</text></g>
<g filter="url(#sh)"><polygon points="185,637 285,668 185,699 85,668" fill="#EEF2FF" stroke="#4F46E5" stroke-width="1.5"/><text x="185" y="664.32" font-size="12" font-weight="600" fill="#3730A3" text-anchor="middle">Header</text>
<text x="185" y="680.32" font-size="12" font-weight="600" fill="#3730A3" text-anchor="middle">found?</text></g>
<g filter="url(#sh)"><rect x="395" y="646" width="250" height="44" rx="10" fill="#FFFBEB" stroke="#FDE68A" stroke-width="1.4" stroke-dasharray="5 4"/><text x="520" y="664.32" font-size="12" font-weight="500" fill="#64748B" text-anchor="middle">Manual header input ·</text>
<text x="520" y="680.32" font-size="12" font-weight="500" fill="#64748B" text-anchor="middle">search whole sheet</text></g>
<g filter="url(#sh)"><rect x="40" y="714" width="290" height="44" rx="10" fill="#FFFFFF" stroke="#CBD5E1" stroke-width="1.5"/><text x="185" y="732.25" font-size="12.5" font-weight="600" fill="#0F172A" text-anchor="middle">Plan fields · call tool:</text>
<text x="185" y="748.75" font-size="12.5" font-weight="600" fill="#0F172A" text-anchor="middle">set BigTable fields</text></g>
<g filter="url(#sh)"><rect x="695" y="714" width="250" height="44" rx="10" fill="#F5F3FF" stroke="#DDD6FE" stroke-width="1.5"/><text x="820" y="732.32" font-size="12" font-weight="600" fill="#0F172A" text-anchor="middle">Interface: generate</text>
<text x="820" y="748.32" font-size="12" font-weight="600" fill="#0F172A" text-anchor="middle">field config</text></g>
<g filter="url(#sh)"><rect x="40" y="782" width="290" height="44" rx="10" fill="#FFFFFF" stroke="#CBD5E1" stroke-width="1.5"/><text x="185" y="800.25" font-size="12.5" font-weight="600" fill="#0F172A" text-anchor="middle">Write field mapping ·</text>
<text x="185" y="816.75" font-size="12.5" font-weight="600" fill="#0F172A" text-anchor="middle">save template</text></g>
<g filter="url(#sh)"><rect x="695" y="782" width="250" height="44" rx="10" fill="#F5F3FF" stroke="#DDD6FE" stroke-width="1.5"/><text x="820" y="800.32" font-size="12" font-weight="600" fill="#0F172A" text-anchor="middle">Interface: add mapping /</text>
<text x="820" y="816.32" font-size="12" font-weight="600" fill="#0F172A" text-anchor="middle">template / apply</text></g>
<g filter="url(#sh)"><polygon points="185,841 285,872 185,903 85,872" fill="#EEF2FF" stroke="#4F46E5" stroke-width="1.5"/><text x="185" y="868.32" font-size="12" font-weight="600" fill="#3730A3" text-anchor="middle">Use</text>
<text x="185" y="884.32" font-size="12" font-weight="600" fill="#3730A3" text-anchor="middle">template?</text></g>
<g filter="url(#sh)"><rect x="40" y="918" width="135" height="44" rx="10" fill="#FFFFFF" stroke="#CBD5E1" stroke-width="1.5"/><text x="107.5" y="944.32" font-size="12" font-weight="600" fill="#0F172A" text-anchor="middle">Call tool: reference template</text></g>
<g filter="url(#sh)"><rect x="195" y="918" width="135" height="44" rx="10" fill="#FFFFFF" stroke="#CBD5E1" stroke-width="1.5"/><text x="262.5" y="936.32" font-size="12" font-weight="600" fill="#0F172A" text-anchor="middle">Think mapping · call tool:</text>
<text x="262.5" y="952.32" font-size="12" font-weight="600" fill="#0F172A" text-anchor="middle">mapping settings</text></g>
<rect x="30" y="974" width="4" height="20" rx="2" fill="#4F46E5"/>
<text x="44" y="988" font-size="13" font-weight="700" fill="#3730A3" text-anchor="start" letter-spacing="1.5">PHASE 2 · CLEAN PIPELINE</text>
<line x1="30" y1="1000" x2="950" y2="1000" stroke="#E2E8F0" stroke-width="1.5" stroke-dasharray="6 5"/>
<g filter="url(#sh)"><rect x="40" y="1034" width="290" height="44" rx="10" fill="#FFFFFF" stroke="#CBD5E1" stroke-width="1.5"/><text x="185" y="1052.25" font-size="12.5" font-weight="600" fill="#0F172A" text-anchor="middle">Describe cleaning rules</text>
<text x="185" y="1068.75" font-size="12.5" font-weight="600" fill="#0F172A" text-anchor="middle">(or input SQL)</text></g>
<g filter="url(#sh)"><rect x="40" y="1102" width="290" height="44" rx="10" fill="#FFFFFF" stroke="#CBD5E1" stroke-width="1.5"/><text x="185" y="1120.25" font-size="12.5" font-weight="600" fill="#0F172A" text-anchor="middle">Call tool: add clean</text>
<text x="185" y="1136.75" font-size="12.5" font-weight="600" fill="#0F172A" text-anchor="middle">pipeline (with SQL)</text></g>
<g filter="url(#sh)"><rect x="695" y="1102" width="250" height="44" rx="10" fill="#F5F3FF" stroke="#DDD6FE" stroke-width="1.5"/><text x="820" y="1120.32" font-size="12" font-weight="600" fill="#0F172A" text-anchor="middle">Interface: add clean pipeline</text>
<text x="820" y="1136.32" font-size="12" font-weight="600" fill="#0F172A" text-anchor="middle">(overwritable)</text></g>
<g filter="url(#sh)"><rect x="695" y="1170" width="250" height="44" rx="10" fill="#F5F3FF" stroke="#DDD6FE" stroke-width="1.5"/><text x="820" y="1188.32" font-size="12" font-weight="600" fill="#0F172A" text-anchor="middle">Load BigTable DB ·</text>
<text x="820" y="1204.32" font-size="12" font-weight="600" fill="#0F172A" text-anchor="middle">load by rules → BigTable</text></g>
<g filter="url(#sh)"><polygon points="185,1229 285,1260 185,1291 85,1260" fill="#EEF2FF" stroke="#4F46E5" stroke-width="1.5"/><text x="185" y="1256.32" font-size="12" font-weight="600" fill="#3730A3" text-anchor="middle">Run ·</text>
<text x="185" y="1272.32" font-size="12" font-weight="600" fill="#3730A3" text-anchor="middle">success?</text></g>
<g filter="url(#sh)"><rect x="695" y="1238" width="250" height="44" rx="10" fill="#F5F3FF" stroke="#DDD6FE" stroke-width="1.5"/><text x="820" y="1256.32" font-size="12" font-weight="600" fill="#0F172A" text-anchor="middle">Interface: preview</text>
<text x="820" y="1272.32" font-size="12" font-weight="600" fill="#0F172A" text-anchor="middle">clean result</text></g>
<g filter="url(#sh)"><rect x="40" y="1306" width="290" height="44" rx="10" fill="#FFFFFF" stroke="#CBD5E1" stroke-width="1.5"/><text x="185" y="1324.25" font-size="12.5" font-weight="600" fill="#0F172A" text-anchor="middle">Call tool: save</text>
<text x="185" y="1340.75" font-size="12.5" font-weight="600" fill="#0F172A" text-anchor="middle">clean settings</text></g>
<g filter="url(#sh)"><rect x="695" y="1306" width="250" height="44" rx="10" fill="#F5F3FF" stroke="#DDD6FE" stroke-width="1.5"/><text x="820" y="1324.32" font-size="12" font-weight="600" fill="#0F172A" text-anchor="middle">Interface: generate</text>
<text x="820" y="1340.32" font-size="12" font-weight="600" fill="#0F172A" text-anchor="middle">settings file</text></g>
<rect x="30" y="1362" width="4" height="20" rx="2" fill="#4F46E5"/>
<text x="44" y="1376" font-size="13" font-weight="700" fill="#3730A3" text-anchor="start" letter-spacing="1.5">PHASE 3 · AGGREGATE &amp; QUERY</text>
<line x1="30" y1="1388" x2="950" y2="1388" stroke="#E2E8F0" stroke-width="1.5" stroke-dasharray="6 5"/>
<g filter="url(#sh)"><rect x="40" y="1422" width="290" height="44" rx="10" fill="#FFFFFF" stroke="#CBD5E1" stroke-width="1.5"/><text x="185" y="1440.25" font-size="12.5" font-weight="600" fill="#0F172A" text-anchor="middle">Call tool: clean &amp; aggregate →</text>
<text x="185" y="1456.75" font-size="12.5" font-weight="600" fill="#0F172A" text-anchor="middle">MasterTable</text></g>
<g filter="url(#sh)"><rect x="695" y="1422" width="250" height="44" rx="10" fill="#F5F3FF" stroke="#DDD6FE" stroke-width="1.5"/><text x="820" y="1440.32" font-size="12" font-weight="600" fill="#0F172A" text-anchor="middle">Interface: execute clean &amp;</text>
<text x="820" y="1456.32" font-size="12" font-weight="600" fill="#0F172A" text-anchor="middle">aggregate → MasterTable</text></g>
<g filter="url(#sh)"><rect x="695" y="1490" width="250" height="44" rx="10" fill="#F5F3FF" stroke="#DDD6FE" stroke-width="1.5"/><text x="820" y="1508.32" font-size="12" font-weight="600" fill="#0F172A" text-anchor="middle">Interface: new query pipeline</text>
<text x="820" y="1524.32" font-size="12" font-weight="600" fill="#0F172A" text-anchor="middle">(SQL) · run</text></g>
<g filter="url(#sh)"><rect x="40" y="1558" width="290" height="44" rx="10" fill="#FFFFFF" stroke="#CBD5E1" stroke-width="1.5"/><text x="185" y="1576.25" font-size="12.5" font-weight="600" fill="#0F172A" text-anchor="middle">Build SQL from prompt ·</text>
<text x="185" y="1592.75" font-size="12.5" font-weight="600" fill="#0F172A" text-anchor="middle">run query pipeline</text></g>
<g filter="url(#sh)"><rect x="695" y="1558" width="250" height="44" rx="10" fill="#F5F3FF" stroke="#DDD6FE" stroke-width="1.5"/><text x="820" y="1584.32" font-size="12" font-weight="600" fill="#0F172A" text-anchor="middle">Run query pipeline</text></g>
<g filter="url(#sh)"><rect x="40" y="1623" width="290" height="50" rx="25" fill="#4F46E5" stroke="none"/><text x="185" y="1652.5" font-size="12.5" font-weight="600" fill="#FFFFFF" text-anchor="middle">Finish · deliver CSV</text></g>
<path d="M185,217 L185,238" fill="none" stroke="#94A3B8" stroke-width="1.5" marker-end="url(#arr)"/>
<path d="M185,282 L185,306" fill="none" stroke="#94A3B8" stroke-width="1.5" marker-end="url(#arr)"/>
<path d="M185,350 L185,374" fill="none" stroke="#94A3B8" stroke-width="1.5" marker-end="url(#arr)"/>
<path d="M185,418 L185,442" fill="none" stroke="#94A3B8" stroke-width="1.5" marker-end="url(#arr)"/>
<path d="M330,328 L695,328" fill="none" stroke="#94A3B8" stroke-width="1.5" marker-end="url(#arr)"/>
<path d="M330,396 L695,396" fill="none" stroke="#94A3B8" stroke-width="1.5" marker-end="url(#arr)"/>
<path d="M330,464 L695,464" fill="none" stroke="#94A3B8" stroke-width="1.5" marker-end="url(#arr)"/>
<path d="M185,486 L185,501" fill="none" stroke="#94A3B8" stroke-width="1.5" marker-end="url(#arr)"/>
<path d="M85,532 L12,532 L12,464 L40,464" fill="none" stroke="#94A3B8" stroke-width="1.5" marker-end="url(#arr)"/>
<text x="20" y="498" font-size="11" font-weight="700" fill="#DC2626" text-anchor="middle">No</text>
<path d="M185,563 L185,578" fill="none" stroke="#94A3B8" stroke-width="1.5" marker-end="url(#arr)"/>
<text x="197" y="575" font-size="11" font-weight="700" fill="#16A34A" text-anchor="middle">Yes</text>
<path d="M185,622 L185,637" fill="none" stroke="#94A3B8" stroke-width="1.5" marker-end="url(#arr)"/>
<path d="M330,600 L695,600" fill="none" stroke="#94A3B8" stroke-width="1.5" marker-end="url(#arr)"/>
<path d="M285,668 L395,668" fill="none" stroke="#94A3B8" stroke-width="1.5" marker-end="url(#arr)"/>
<text x="340" y="662" font-size="11" font-weight="700" fill="#DC2626" text-anchor="middle">No</text>
<path d="M520,690 L520,708 L12,708 L12,600 L40,600" fill="none" stroke="#94A3B8" stroke-width="1.5" marker-end="url(#arr)"/>
<text x="20" y="645" font-size="11" font-weight="700" fill="#DC2626" text-anchor="middle">No</text>
<path d="M185,699 L185,714" fill="none" stroke="#94A3B8" stroke-width="1.5" marker-end="url(#arr)"/>
<text x="197" y="711" font-size="11" font-weight="700" fill="#16A34A" text-anchor="middle">Yes</text>
<path d="M185,758 L185,782" fill="none" stroke="#94A3B8" stroke-width="1.5" marker-end="url(#arr)"/>
<path d="M330,736 L695,736" fill="none" stroke="#94A3B8" stroke-width="1.5" marker-end="url(#arr)"/>
<path d="M330,804 L695,804" fill="none" stroke="#94A3B8" stroke-width="1.5" marker-end="url(#arr)"/>
<path d="M185,826 L185,841" fill="none" stroke="#94A3B8" stroke-width="1.5" marker-end="url(#arr)"/>
<path d="M155,894 L155,918" fill="none" stroke="#94A3B8" stroke-width="1.5" marker-end="url(#arr)"/>
<text x="140" y="913" font-size="11" font-weight="700" fill="#16A34A" text-anchor="middle">Yes</text>
<path d="M215,894 L215,918" fill="none" stroke="#94A3B8" stroke-width="1.5" marker-end="url(#arr)"/>
<text x="230" y="913" font-size="11" font-weight="700" fill="#DC2626" text-anchor="middle">No</text>
<path d="M107.5,962 L107.5,1034" fill="none" stroke="#94A3B8" stroke-width="1.5" marker-end="url(#arr)"/>
<path d="M262.5,962 L262.5,1034" fill="none" stroke="#94A3B8" stroke-width="1.5" marker-end="url(#arr)"/>
<path d="M185,1078 L185,1102" fill="none" stroke="#94A3B8" stroke-width="1.5" marker-end="url(#arr)"/>
<path d="M330,1124 L695,1124" fill="none" stroke="#94A3B8" stroke-width="1.5" marker-end="url(#arr)"/>
<path d="M820,1146 L820,1170" fill="none" stroke="#94A3B8" stroke-width="1.5" marker-end="url(#arr)"/>
<path d="M820,1214 L820,1221.5 L185,1221.5 L185,1229" fill="none" stroke="#94A3B8" stroke-width="1.5" marker-end="url(#arr)"/>
<path d="M85,1260 L12,1260 L12,1192 L695,1192" fill="none" stroke="#94A3B8" stroke-width="1.5" marker-end="url(#arr)"/>
<text x="20" y="1226" font-size="11" font-weight="700" fill="#DC2626" text-anchor="middle">No</text>
<path d="M285,1260 L695,1260" fill="none" stroke="#94A3B8" stroke-width="1.5" marker-end="url(#arr)"/>
<text x="490" y="1254" font-size="11" font-weight="700" fill="#16A34A" text-anchor="middle">Yes</text>
<path d="M820,1282 L820,1294 L185,1294 L185,1306" fill="none" stroke="#94A3B8" stroke-width="1.5" marker-end="url(#arr)"/>
<path d="M330,1328 L695,1328" fill="none" stroke="#94A3B8" stroke-width="1.5" marker-end="url(#arr)"/>
<path d="M185,1350 L185,1422" fill="none" stroke="#94A3B8" stroke-width="1.5" marker-end="url(#arr)"/>
<path d="M330,1444 L695,1444" fill="none" stroke="#94A3B8" stroke-width="1.5" marker-end="url(#arr)"/>
<path d="M820,1466 L820,1490" fill="none" stroke="#94A3B8" stroke-width="1.5" marker-end="url(#arr)"/>
<path d="M820,1534 L820,1546 L185,1546 L185,1558" fill="none" stroke="#94A3B8" stroke-width="1.5" marker-end="url(#arr)"/>
<path d="M330,1580 L695,1580" fill="none" stroke="#94A3B8" stroke-width="1.5" marker-end="url(#arr)"/>
<path d="M185,1602 L185,1623" fill="none" stroke="#94A3B8" stroke-width="1.5" marker-end="url(#arr)"/>
</svg>
