<!-- Generated by scripts/gen-arc-svgs.mjs — light theme, English -->
<svg xmlns="http://www.w3.org/2000/svg" width="1260" height="800" viewBox="0 0 1260 800" role="img" aria-label="OnWorking — User Flows">
<style>svg{font-family:'Segoe UI', 'Inter', -apple-system, 'Helvetica Neue', Arial, sans-serif;}</style>
<defs><marker id="arr" markerWidth="9" markerHeight="9" refX="8" refY="4.5" orient="auto" markerUnits="userSpaceOnUse"><path d="M0,0 L9,4.5 L0,9 z" fill="#94A3B8"/></marker><filter id="sh" x="-10%" y="-10%" width="120%" height="130%"><feDropShadow dx="0" dy="1.5" stdDeviation="2.5" flood-color="#0F172A" flood-opacity="0.07"/></filter></defs>
<text x="190" y="26" font-size="12" font-weight="700" fill="#4F46E5" text-anchor="middle" letter-spacing="2">SETUP FLOW</text>
<text x="630" y="26" font-size="12" font-weight="700" fill="#4F46E5" text-anchor="middle" letter-spacing="2">QUERY FLOW</text>
<text x="1090" y="26" font-size="12" font-weight="700" fill="#4F46E5" text-anchor="middle" letter-spacing="2">UPDATE FLOW</text>
<g filter="url(#sh)"><rect x="115" y="48" width="150" height="50" rx="25" fill="#4F46E5" stroke="none"/><text x="190" y="77.68" font-size="13" font-weight="600" fill="#FFFFFF" text-anchor="middle">Start initial setup</text></g>
<path d="M190,98 L190,116" fill="none" stroke="#94A3B8" stroke-width="1.5" marker-end="url(#arr)"/>
<g filter="url(#sh)"><rect x="105" y="116" width="170" height="44" rx="10" fill="#FFFFFF" stroke="#CBD5E1" stroke-width="1.5"/><text x="190" y="142.68" font-size="13" font-weight="600" fill="#0F172A" text-anchor="middle">Import files</text></g>
<path d="M190,160 L190,182" fill="none" stroke="#94A3B8" stroke-width="1.5" marker-end="url(#arr)"/>
<g filter="url(#sh)"><rect x="105" y="182" width="170" height="44" rx="10" fill="#FFFFFF" stroke="#CBD5E1" stroke-width="1.5"/><text x="190" y="208.68" font-size="13" font-weight="600" fill="#0F172A" text-anchor="middle">Set up mapping</text></g>
<path d="M190,226 L190,248" fill="none" stroke="#94A3B8" stroke-width="1.5" marker-end="url(#arr)"/>
<g filter="url(#sh)"><rect x="105" y="248" width="170" height="44" rx="10" fill="#FFFFFF" stroke="#CBD5E1" stroke-width="1.5"/><text x="190" y="274.68" font-size="13" font-weight="600" fill="#0F172A" text-anchor="middle">View preview</text></g>
<path d="M190,292 L190,320" fill="none" stroke="#94A3B8" stroke-width="1.5" marker-end="url(#arr)"/>
<g filter="url(#sh)"><polygon points="190,322 300,360 190,398 80,360" fill="#EEF2FF" stroke="#4F46E5" stroke-width="1.5"/><text x="190" y="356.18" font-size="13" font-weight="600" fill="#3730A3" text-anchor="middle">Is the data</text>
<text x="190" y="373.18" font-size="13" font-weight="600" fill="#3730A3" text-anchor="middle">clean?</text></g>
<text x="268" y="352" font-size="11" font-weight="700" fill="#16A34A" text-anchor="middle">Yes</text>
<text x="307" y="352" font-size="11" font-weight="700" fill="#DC2626" text-anchor="middle">No</text>
<path d="M190,398 L190,478" fill="none" stroke="#94A3B8" stroke-width="1.5" marker-end="url(#arr)"/>
<g filter="url(#sh)"><rect x="115" y="478" width="150" height="50" rx="25" fill="#4F46E5" stroke="none"/><text x="190" y="507.68" font-size="13" font-weight="600" fill="#FFFFFF" text-anchor="middle">Finish setup</text></g>
<path d="M300,360 L328,360" fill="none" stroke="#94A3B8" stroke-width="1.5" marker-end="url(#arr)"/>
<g filter="url(#sh)"><rect x="328" y="338" width="170" height="44" rx="10" fill="#FFFFFF" stroke="#CBD5E1" stroke-width="1.5"/><text x="413" y="356.18" font-size="13" font-weight="600" fill="#0F172A" text-anchor="middle">Set cleaning &amp;</text>
<text x="413" y="373.18" font-size="13" font-weight="600" fill="#0F172A" text-anchor="middle">transforms</text></g>
<path d="M413,382 L413,412 L290,412 L290,270 L275,270" fill="none" stroke="#94A3B8" stroke-width="1.5" marker-end="url(#arr)"/>
<g filter="url(#sh)"><rect x="555" y="48" width="150" height="50" rx="25" fill="#4F46E5" stroke="none"/><text x="630" y="77.68" font-size="13" font-weight="600" fill="#FFFFFF" text-anchor="middle">Start query</text></g>
<path d="M630,98 L630,120" fill="none" stroke="#94A3B8" stroke-width="1.5" marker-end="url(#arr)"/>
<g filter="url(#sh)"><polygon points="630,122 740,160 630,198 520,160" fill="#EEF2FF" stroke="#4F46E5" stroke-width="1.5"/><text x="630" y="164.68" font-size="13" font-weight="600" fill="#3730A3" text-anchor="middle">Use AI?</text></g>
<path d="M565,198 L530,198 L530,226" fill="none" stroke="#94A3B8" stroke-width="1.5" marker-end="url(#arr)"/>
<text x="557" y="192" font-size="11" font-weight="700" fill="#16A34A" text-anchor="middle">Yes</text>
<g filter="url(#sh)"><rect x="455" y="226" width="150" height="40" rx="10" fill="#FFFFFF" stroke="#CBD5E1" stroke-width="1.5"/><text x="530" y="242.18" font-size="13" font-weight="600" fill="#0F172A" text-anchor="middle">Describe request</text>
<text x="530" y="259.18" font-size="13" font-weight="600" fill="#0F172A" text-anchor="middle">to agent</text></g>
<path d="M530,266 L530,286" fill="none" stroke="#94A3B8" stroke-width="1.5" marker-end="url(#arr)"/>
<g filter="url(#sh)"><rect x="455" y="286" width="150" height="40" rx="10" fill="#FFFFFF" stroke="#CBD5E1" stroke-width="1.5"/><text x="530" y="310.68" font-size="13" font-weight="600" fill="#0F172A" text-anchor="middle">AI generates SQL</text></g>
<path d="M530,326 L530,361" fill="none" stroke="#94A3B8" stroke-width="1.5" marker-end="url(#arr)"/>
<g filter="url(#sh)"><polygon points="530,361 620,396 530,431 440,396" fill="#EEF2FF" stroke="#4F46E5" stroke-width="1.5"/><text x="530" y="392.18" font-size="13" font-weight="600" fill="#3730A3" text-anchor="middle">Is it</text>
<text x="530" y="409.18" font-size="13" font-weight="600" fill="#3730A3" text-anchor="middle">correct?</text></g>
<text x="452" y="392" font-size="11" font-weight="700" fill="#DC2626" text-anchor="middle">No</text>
<path d="M440,396 L415,396 L415,246 L453,246" fill="none" stroke="#94A3B8" stroke-width="1.5" marker-end="url(#arr)"/>
<path d="M530,431 L530,470 L630,470 L630,486" fill="none" stroke="#94A3B8" stroke-width="1.5" marker-end="url(#arr)"/>
<path d="M695,198 L720,198 L720,226" fill="none" stroke="#94A3B8" stroke-width="1.5" marker-end="url(#arr)"/>
<text x="678" y="192" font-size="11" font-weight="700" fill="#DC2626" text-anchor="middle">No</text>
<g filter="url(#sh)"><rect x="645" y="226" width="150" height="40" rx="10" fill="#FFFFFF" stroke="#CBD5E1" stroke-width="1.5"/><text x="720" y="250.68" font-size="13" font-weight="600" fill="#0F172A" text-anchor="middle">Input SQL</text></g>
<path d="M720,266 L720,301" fill="none" stroke="#94A3B8" stroke-width="1.5" marker-end="url(#arr)"/>
<g filter="url(#sh)"><polygon points="720,301 810,336 720,371 630,336" fill="#EEF2FF" stroke="#4F46E5" stroke-width="1.5"/><text x="720" y="332.18" font-size="13" font-weight="600" fill="#3730A3" text-anchor="middle">Is it</text>
<text x="720" y="349.18" font-size="13" font-weight="600" fill="#3730A3" text-anchor="middle">correct?</text></g>
<text x="813" y="332" font-size="11" font-weight="700" fill="#DC2626" text-anchor="middle">No</text>
<path d="M810,336 L835,336 L835,246 L797,246" fill="none" stroke="#94A3B8" stroke-width="1.5" marker-end="url(#arr)"/>
<path d="M720,371 L720,470 L630,470 L630,486" fill="none" stroke="#94A3B8" stroke-width="1.5" marker-end="url(#arr)"/>
<g filter="url(#sh)"><rect x="545" y="486" width="170" height="44" rx="10" fill="#FFFFFF" stroke="#CBD5E1" stroke-width="1.5"/><text x="630" y="512.68" font-size="13" font-weight="600" fill="#0F172A" text-anchor="middle">Generate query table</text></g>
<path d="M630,530 L630,556" fill="none" stroke="#94A3B8" stroke-width="1.5" marker-end="url(#arr)"/>
<g filter="url(#sh)"><polygon points="630,561 720,596 630,631 540,596" fill="#EEF2FF" stroke="#4F46E5" stroke-width="1.5"/><text x="630" y="600.68" font-size="13" font-weight="600" fill="#3730A3" text-anchor="middle">Save?</text></g>
<text x="585" y="645" font-size="11" font-weight="700" fill="#16A34A" text-anchor="middle">Yes</text>
<text x="676" y="648" font-size="11" font-weight="700" fill="#DC2626" text-anchor="middle">No</text>
<path d="M590,631 L590,655" fill="none" stroke="#94A3B8" stroke-width="1.5" marker-end="url(#arr)"/>
<g filter="url(#sh)"><rect x="545" y="655" width="170" height="40" rx="10" fill="#FFFFFF" stroke="#CBD5E1" stroke-width="1.5"/><text x="630" y="679.68" font-size="13" font-weight="600" fill="#0F172A" text-anchor="middle">Save pipeline config</text></g>
<path d="M630,695 L630,718" fill="none" stroke="#94A3B8" stroke-width="1.5" marker-end="url(#arr)"/>
<path d="M670,631 L670,718" fill="none" stroke="#94A3B8" stroke-width="1.5" marker-end="url(#arr)"/>
<g filter="url(#sh)"><rect x="555" y="718" width="150" height="50" rx="25" fill="#4F46E5" stroke="none"/><text x="630" y="747.68" font-size="13" font-weight="600" fill="#FFFFFF" text-anchor="middle">Finish query</text></g>
<g filter="url(#sh)"><rect x="1015" y="48" width="150" height="50" rx="25" fill="#4F46E5" stroke="none"/><text x="1090" y="77.68" font-size="13" font-weight="600" fill="#FFFFFF" text-anchor="middle">Start update</text></g>
<path d="M1090,98 L1090,116" fill="none" stroke="#94A3B8" stroke-width="1.5" marker-end="url(#arr)"/>
<g filter="url(#sh)"><rect x="1005" y="116" width="170" height="44" rx="10" fill="#FFFFFF" stroke="#CBD5E1" stroke-width="1.5"/><text x="1090" y="142.68" font-size="13" font-weight="600" fill="#0F172A" text-anchor="middle">Update source file</text></g>
<path d="M1090,160 L1090,182" fill="none" stroke="#94A3B8" stroke-width="1.5" marker-end="url(#arr)"/>
<g filter="url(#sh)"><rect x="1005" y="182" width="170" height="44" rx="10" fill="#FFFFFF" stroke="#CBD5E1" stroke-width="1.5"/><text x="1090" y="208.68" font-size="13" font-weight="600" fill="#0F172A" text-anchor="middle">Recompute data</text></g>
<path d="M1090,226 L1090,248" fill="none" stroke="#94A3B8" stroke-width="1.5" marker-end="url(#arr)"/>
<g filter="url(#sh)"><rect x="1005" y="248" width="170" height="44" rx="10" fill="#FFFFFF" stroke="#CBD5E1" stroke-width="1.5"/><text x="1090" y="274.68" font-size="13" font-weight="600" fill="#0F172A" text-anchor="middle">Get new data</text></g>
<path d="M1090,292 L1090,318" fill="none" stroke="#94A3B8" stroke-width="1.5" marker-end="url(#arr)"/>
<g filter="url(#sh)"><rect x="1015" y="318" width="150" height="50" rx="25" fill="#4F46E5" stroke="none"/><text x="1090" y="347.68" font-size="13" font-weight="600" fill="#FFFFFF" text-anchor="middle">Finish update</text></g>
<g filter="url(#sh)"><rect x="863" y="116" width="132" height="104" rx="10" fill="#FFFBEB" stroke="#FDE68A" stroke-width="1.4" stroke-dasharray="5 4"/><text x="929" y="156.64" font-size="11.5" font-weight="500" fill="#64748B" text-anchor="middle">AI-executed actions</text>
<text x="929" y="172.14" font-size="11.5" font-weight="500" fill="#64748B" text-anchor="middle">are mirrored by the</text>
<text x="929" y="187.64" font-size="11.5" font-weight="500" fill="#64748B" text-anchor="middle">frontend in sync</text></g>
<line x1="995" y1="168" x2="1005" y2="152" stroke="#94A3B8" stroke-width="1.5" stroke-dasharray="3 3"/>
</svg>
